<?xml version="1.0" standalone="no"?>
<!DOCTYPE svg PUBLIC "-//W3C//DTD SVG 20010904//EN"
 "http://www.w3.org/TR/2001/REC-SVG-20010904/DTD/svg10.dtd">
<svg version="1.0" xmlns="http://www.w3.org/2000/svg"
 width="1280.000000pt" height="905.000000pt" viewBox="0 0 1280.000000 905.000000"
 preserveAspectRatio="xMidYMid meet">
<metadata>
Created by potrace 1.15, written by Peter Selinger 2001-2017
</metadata>
<g transform="translate(0.000000,905.000000) scale(0.100000,-0.100000)"
fill="#000000" stroke="none">
<path d="M3235 8460 l-150 -5 -3 -35 c-1 -19 9 -172 23 -340 48 -563 54 -635
54 -670 0 -31 -14 -51 -122 -171 -67 -74 -151 -169 -187 -209 -57 -66 -156
-176 -170 -190 -3 -3 -27 -30 -54 -60 -28 -30 -100 -109 -161 -175 -61 -66
-129 -140 -151 -165 -79 -91 -211 -235 -325 -355 -42 -44 -127 -136 -190 -205
-63 -69 -118 -130 -124 -136 -5 -6 -41 -46 -80 -89 -38 -43 -111 -124 -161
-179 -113 -124 -184 -211 -184 -225 0 -6 21 -11 50 -11 40 0 55 5 83 29 18 17
59 39 90 51 31 12 59 26 62 31 4 5 12 9 18 9 9 0 12 -49 11 -197 -1 -109 2
-204 6 -212 4 -8 3 -25 -2 -37 -7 -15 -7 -28 0 -40 7 -13 7 -25 0 -37 -7 -14
-6 -26 2 -43 11 -19 11 -26 0 -39 -11 -13 -11 -20 0 -39 9 -18 9 -29 1 -45 -9
-15 -8 -25 0 -39 7 -12 9 -27 4 -38 -5 -11 -7 -23 -5 -29 4 -11 7 -201 13
-673 2 -166 6 -305 10 -308 3 -3 2 -16 -3 -28 -4 -12 -4 -29 1 -38 6 -10 5
-27 -1 -43 -6 -15 -7 -32 -3 -38 3 -6 8 -128 10 -271 3 -229 13 -1256 13
-1296 0 -8 -1 -40 -3 -72 -3 -31 -1 -62 4 -69 4 -7 3 -21 -2 -31 -6 -12 -6
-25 0 -37 8 -14 4 -27 -21 -60 l-31 -42 7 -212 c4 -117 9 -239 12 -273 l6 -61
517 -7 c917 -12 1542 -17 2219 -16 587 0 662 -2 662 -15 0 -9 -11 -20 -24 -25
-19 -7 -27 -21 -35 -61 -6 -28 -10 -53 -9 -54 2 -1 18 -10 37 -20 71 -36 149
-57 226 -61 86 -4 287 -20 373 -30 35 -4 58 -2 68 6 10 9 39 11 104 6 76 -6
91 -4 96 9 5 11 22 15 69 15 70 0 125 15 125 35 0 14 116 45 169 45 23 0 31
-5 31 -18 0 -10 18 -33 40 -50 l39 -32 245 0 c144 0 263 4 289 10 37 10 51 8
95 -9 61 -24 100 -26 232 -10 93 11 97 11 200 -19 183 -53 352 -91 456 -101
55 -6 145 -18 199 -26 113 -18 397 -12 451 10 31 13 35 11 99 -36 73 -53 105
-60 157 -33 22 11 43 14 78 9 42 -6 55 -3 104 25 59 34 76 54 76 92 0 18 13
30 63 55 34 18 89 42 121 53 33 11 67 27 76 35 14 13 26 14 69 4 66 -14 86 -8
138 36 49 42 84 109 76 147 -4 20 4 40 35 83 22 31 46 77 53 103 l12 48 81 -1
c71 0 89 4 141 30 58 29 60 32 88 105 16 41 36 100 46 130 9 30 35 89 59 130
23 41 51 103 63 138 12 35 26 61 32 59 6 -2 17 -35 24 -73 7 -38 20 -100 28
-139 31 -155 57 -283 66 -340 6 -33 19 -96 30 -140 22 -86 49 -251 49 -295 0
-51 31 -65 140 -65 l97 0 41 -37 c23 -21 52 -40 64 -42 103 -22 147 -26 273
-26 110 0 164 -5 229 -20 58 -14 112 -20 164 -18 76 3 77 3 92 35 13 29 20 33
55 32 22 0 72 -7 110 -16 96 -22 219 -23 241 -1 21 21 13 34 -34 49 -37 12
-202 86 -255 114 -16 8 -45 15 -66 15 -20 0 -47 7 -59 16 -18 12 -37 14 -96 9
-128 -12 -179 -9 -242 15 -32 12 -86 26 -118 30 -32 5 -63 13 -69 19 -5 5 -18
44 -28 86 -10 42 -25 87 -33 98 -9 12 -31 43 -50 69 l-33 47 -6 208 c-10 353
-29 479 -92 611 -12 26 -28 64 -35 84 -14 37 -14 37 33 87 41 44 47 56 47 93
0 24 -9 75 -19 114 -12 43 -17 87 -14 115 4 39 -1 57 -41 134 l-46 90 20 170
c12 94 22 222 24 285 3 95 7 122 25 155 38 69 16 165 -80 350 -30 59 -49 109
-49 129 0 32 -30 139 -50 181 -5 11 -14 33 -20 48 -22 62 -101 166 -165 217
-36 30 -74 67 -84 83 -31 49 -211 207 -270 237 -31 15 -73 41 -93 58 -21 16
-67 42 -104 58 l-65 28 6 46 c11 79 -32 270 -61 270 -7 0 -21 -11 -30 -25 -19
-30 -38 -33 -29 -5 8 24 -45 193 -89 285 -21 42 -39 100 -46 145 -6 41 -16
100 -21 130 -8 45 -55 368 -99 680 -21 146 -50 338 -59 385 -5 28 -17 104 -26
170 -24 185 -46 309 -56 321 -6 7 -112 13 -308 17 -555 12 -1106 28 -1120 33
-12 4 -13 37 -7 197 4 105 11 235 16 287 6 62 5 99 -1 106 -8 9 -66 12 -221
10 -209 -3 -211 -3 -229 -27 -17 -22 -19 -46 -19 -286 0 -189 -3 -264 -12
-269 -14 -9 -67 -8 -858 12 -1012 25 -1382 34 -1676 41 l-282 6 -111 128 c-61
70 -111 131 -111 134 0 3 -10 17 -22 30 -13 13 -28 30 -33 37 -6 7 -48 57 -94
110 -85 101 -127 138 -155 138 -9 0 -24 4 -34 10 -9 5 -52 21 -95 35 -85 27
-103 25 -149 -19 -15 -14 -29 -26 -31 -26 -5 0 -19 79 -22 125 -18 277 -35
448 -47 463 -11 13 -12 13 -293 2z m4493 -7001 c52 -4 108 5 119 20 12 15 14
15 27 -1 7 -10 21 -18 30 -18 20 0 20 -1 -3 -58 -10 -26 -22 -60 -27 -77 -5
-16 -12 -28 -14 -26 -3 2 -14 -1 -26 -7 -18 -10 -30 -2 -104 73 l-83 83 29 25
c27 24 29 24 32 6 2 -10 11 -20 20 -20z"/>
</g>
</svg>
